mastitorrents.com 
http://mastitorrents.com/forums/index.php


General

Format : AVI
Format/Info : Audio Video Interleave
File size : 30.2 MiB
Duration : 7mn 7s
Overall bit rate : 591 Kbps
Writing application : Lavf52.13.0

Video
Format : S-Mpeg 4 v2
Codec ID : MP42
Codec ID/Info : Microsoft MPEG-4 V2
Duration : 7mn 7s
Bit rate : 482 Kbps
Width : 176 pixels
Height : 144 pixels
Display aspect ratio : 1.222
Frame rate : 29.970 fps
Resolution : 24 bits
Bits/(Pixel*Frame) : 0.635
Stream size : 24.6 MiB (81%)

Audio
ID : 1
Format : MPEG Audio
Format version : Version 1
Format profile : Layer 3
Format_Settings_Mode : Joint stereo / MS Stereo
Codec ID : 55
Codec ID/Hint : MP3
Duration : 7mn 7s
Bit rate mode : Constant
Bit rate : 96.0 Kbps
Channel(s) : 2 channels
Sampling rate : 44.1 KHz
Resolution : 16 bits
Stream size : 4.90 MiB (16%)
Alignment : Aligned on interleaves
Interleave, duration : 26 ms (0.78 video frame)
